<?xml version="1.0" encoding="UTF-8"?>
<svg xmlns="http://www.w3.org/2000/svg" xmlns:xlink="http://www.w3.org/1999/xlink" viewBox="0 0 250 250" width="250px" height="250px">
<g id="surface4518968">
<path style=" stroke:none;fill-rule:nonzero;fill:rgb(100%,100%,100%);fill-opacity:1;" d="M 11.71875 27.34375 L 20.636719 39.726562 C 21.820312 41.367188 49.976562 79.894531 84.105469 79.894531 L 86.800781 79.894531 C 94.269531 82.941406 104.496094 85.9375 125.054688 85.9375 C 145.605469 85.9375 155.824219 82.941406 163.300781 79.894531 L 165.519531 79.894531 C 199.648438 79.894531 227.808594 41.367188 228.996094 39.726562 L 237.914062 27.34375 L 178.605469 27.34375 C 171.304688 27.34375 164.789062 29.714844 159.988281 34.042969 C 151.632812 29.71875 139.992188 27.34375 125.054688 27.34375 C 109.902344 27.34375 98.167969 29.804688 89.8125 34.210938 C 85 29.78125 78.425781 27.34375 71.039062 27.34375 Z M 44.160156 42.96875 L 71.03125 42.96875 C 73.753906 42.96875 76.199219 43.625 78.046875 44.792969 C 75.496094 48.945312 74.171875 53.722656 74.171875 59.082031 C 74.171875 60.382812 74.289062 61.589844 74.402344 62.804688 C 62.578125 59.386719 51.734375 50.539062 44.160156 42.96875 Z M 178.605469 42.96875 L 205.476562 42.96875 C 198.003906 50.4375 187.339844 59.144531 175.703125 62.660156 C 175.808594 61.492188 175.925781 60.332031 175.925781 59.082031 C 175.925781 53.65625 174.558594 48.8125 171.929688 44.617188 C 173.734375 43.574219 176.039062 42.96875 178.605469 42.96875 Z M 105.828125 50.085938 C 113.699219 50.226562 121.09375 55.421875 121.09375 66.40625 C 107.421875 76.171875 89.84375 66.40625 89.84375 58.59375 C 93.289062 52.925781 99.703125 49.980469 105.828125 50.085938 Z M 144.203125 50.597656 C 150.332031 50.585938 156.738281 53.464844 160.15625 58.59375 C 160.15625 66.40625 142.578125 76.171875 128.90625 66.40625 C 128.90625 55.421875 136.324219 50.617188 144.203125 50.597656 Z M 116.996094 74.21875 L 132.757812 74.21875 C 132.757812 76.914062 130.085938 82.03125 125 82.03125 C 119.570312 82.03125 116.996094 76.914062 116.996094 74.21875 Z M 70.3125 85.9375 L 61.933594 103.492188 C 102.382812 116.332031 147.800781 116.332031 188.09375 103.492188 L 179.6875 85.9375 C 142.308594 96.417969 105.875 96.074219 70.3125 85.9375 Z M 194.902344 117.722656 C 175.070312 124.261719 154.042969 127.902344 132.859375 128.617188 L 132.859375 234.175781 C 135.914062 234.042969 138.964844 233.851562 141.992188 233.558594 C 160.304688 232.03125 177.960938 228.421875 186.761719 225.722656 C 192.304688 224.042969 195.765625 218.601562 195 212.851562 L 188.386719 177.003906 C 188.71875 177.21875 189.003906 177.480469 189.355469 177.671875 C 191.714844 178.972656 194.28125 179.632812 196.96875 179.632812 C 198.859375 179.632812 200.804688 179.308594 202.765625 178.65625 C 207.328125 177.148438 210.621094 174.1875 212.289062 170.097656 C 214.300781 165.167969 213.539062 159.566406 212.320312 155.203125 L 212.820312 155.015625 C 215.738281 153.921875 217.21875 150.667969 216.125 147.742188 L 211.761719 136.085938 C 210.667969 133.167969 207.417969 131.679688 204.5 132.773438 L 202.476562 133.53125 Z M 55.144531 117.730469 L 47.609375 133.523438 L 45.609375 132.773438 C 42.6875 131.679688 39.429688 133.167969 38.335938 136.085938 L 33.964844 147.742188 C 32.878906 150.648438 34.339844 153.867188 37.222656 154.984375 C 35.964844 159.375 35.132812 165.085938 37.179688 170.097656 C 38.84375 174.1875 42.136719 177.144531 46.699219 178.65625 C 48.664062 179.308594 50.613281 179.632812 52.503906 179.632812 C 55.191406 179.632812 57.765625 178.972656 60.121094 177.671875 C 61.636719 176.835938 62.910156 175.753906 64.078125 174.597656 L 55.097656 212.851562 C 54.335938 218.601562 57.792969 224.042969 63.339844 225.722656 C 72.140625 228.417969 89.792969 232.039062 108.109375 233.566406 C 111.164062 233.851562 114.210938 234.039062 117.242188 234.175781 L 117.242188 128.617188 C 96.074219 127.898438 75.035156 124.261719 55.144531 117.730469 Z M 46.792969 158.578125 L 59.761719 163.4375 C 58.675781 165.535156 57.160156 167.695312 55.191406 168.769531 C 54.226562 169.300781 52.621094 169.902344 49.894531 169 C 47.664062 168.261719 46.96875 167.144531 46.601562 166.261719 C 45.742188 164.160156 46.105469 161.238281 46.792969 158.578125 Z M 202.734375 158.789062 C 203.386719 161.445312 203.679688 164.269531 202.867188 166.257812 C 202.503906 167.144531 201.800781 168.261719 199.570312 169 C 196.847656 169.902344 195.242188 169.308594 194.273438 168.777344 C 192.367188 167.734375 190.890625 165.660156 189.8125 163.628906 Z M 202.734375 158.789062 "/>
</g>
</svg>
