<svg xmlns="http://www.w3.org/2000/svg" x="0px" y="0px"
width="300" height="300"
viewBox="0 0 64 64"
style=" fill:#000000;"><path d="M 3 7 L 5.2832031 10.169922 C 5.5862031 10.589922 12.79425 20.453125 21.53125 20.453125 L 22.220703 20.453125 C 24.133474 21.232723 26.750732 22 32.013672 22 C 37.275339 22 39.891426 21.232654 41.804688 20.453125 L 42.373047 20.453125 C 51.110047 20.453125 58.319047 10.589922 58.623047 10.169922 L 60.90625 7 L 45.722656 7 C 43.854391 7 42.186079 7.6073688 40.957031 8.7148438 C 38.817663 7.6082254 35.838475 7 32.013672 7 C 28.134789 7 25.131339 7.6296554 22.992188 8.7578125 C 21.75986 7.6243413 20.076653 7 18.185547 7 L 3 7 z M 11.304688 11 L 18.183594 11 C 18.880643 11 19.507021 11.16787 19.980469 11.466797 C 19.327105 12.530064 18.988281 13.752936 18.988281 15.125 C 18.988281 15.457714 19.017991 15.767379 19.046875 16.078125 C 16.020438 15.202621 13.243834 12.938359 11.304688 11 z M 45.722656 11 L 52.601562 11 C 50.688534 12.912251 47.959385 15.140557 44.980469 16.041016 C 45.007172 15.741549 45.037109 15.444767 45.037109 15.125 C 45.037109 13.735564 44.687267 12.496379 44.013672 11.421875 C 44.476347 11.154809 45.065847 11 45.722656 11 z M 27.091797 12.822266 C 29.107305 12.857905 31 14.1875 31 17 C 27.5 19.5 23 17 23 15 C 23.882 13.54925 25.52418 12.794546 27.091797 12.822266 z M 36.916016 12.953125 C 38.484863 12.949707 40.125 13.6875 41 15 C 41 17 36.5 19.5 33 17 C 33 14.1875 34.898926 12.95752 36.916016 12.953125 z M 29.951172 19 L 33.986328 19 C 33.986328 19.69 33.302 21 32 21 C 30.61 21 29.951172 19.69 29.951172 19 z M 18 22 L 15.855469 26.494141 C 26.210469 29.781141 37.837344 29.781141 48.152344 26.494141 L 46 22 C 36.431 24.683 27.104 24.595 18 22 z M 49.894531 30.136719 C 44.817531 31.810719 39.434719 32.742781 34.011719 32.925781 L 34.011719 59.949219 C 34.793719 59.915219 35.574609 59.866016 36.349609 59.791016 C 41.037609 59.400016 45.557547 58.476156 47.810547 57.785156 C 49.229547 57.355156 50.115922 55.962234 49.919922 54.490234 L 48.226562 45.3125 C 48.311566 45.367501 48.384609 45.434819 48.474609 45.484375 C 49.078609 45.817375 49.735828 45.986328 50.423828 45.986328 C 50.907828 45.986328 51.406203 45.903328 51.908203 45.736328 C 53.076203 45.350328 53.918703 44.591922 54.345703 43.544922 C 54.86093 42.28302 54.665976 40.848961 54.353516 39.732422 L 54.482422 39.683594 C 55.229422 39.403594 55.608125 38.571266 55.328125 37.822266 L 54.210938 34.837891 C 53.930938 34.090891 53.098562 33.710234 52.351562 33.990234 L 51.833984 34.183594 L 49.894531 30.136719 z M 14.117188 30.138672 L 12.1875 34.181641 L 11.675781 33.990234 C 10.927781 33.710234 10.094453 34.090891 9.8144531 34.837891 L 8.6953125 37.822266 C 8.4171931 38.566235 8.7912572 39.390325 9.5292969 39.675781 C 9.2071963 40.79983 8.9944435 42.261513 9.5175781 43.544922 C 9.9435781 44.591922 10.787078 45.349328 11.955078 45.736328 C 12.458078 45.903328 12.957406 45.986328 13.441406 45.986328 C 14.129406 45.986328 14.787625 45.817375 15.390625 45.484375 C 15.779193 45.270422 16.105302 44.993248 16.404297 44.697266 L 14.105469 54.490234 C 13.910469 55.962234 14.794844 57.355156 16.214844 57.785156 C 18.467844 58.475156 22.986781 59.401969 27.675781 59.792969 C 28.457781 59.865969 29.237672 59.914219 30.013672 59.949219 L 30.013672 32.925781 C 24.594672 32.741781 19.209187 31.810672 14.117188 30.138672 z M 11.978516 40.595703 L 15.298828 41.839844 C 15.021079 42.37664 14.633475 42.929859 14.128906 43.205078 C 13.881906 43.341078 13.471438 43.494672 12.773438 43.263672 C 12.202438 43.074672 12.023687 42.7895 11.929688 42.5625 C 11.709757 42.024986 11.80269 41.277029 11.978516 40.595703 z M 51.900391 40.650391 C 52.067272 41.329587 52.141829 42.053111 51.933594 42.5625 C 51.840594 42.7895 51.660844 43.074672 51.089844 43.263672 C 50.392844 43.494672 49.982375 43.343031 49.734375 43.207031 C 49.246168 42.940252 48.868068 42.409268 48.591797 41.888672 L 51.900391 40.650391 z" fill="rgb(255, 255, 255)"></path></svg>