<svg fill="#000000" xmlns="http://www.w3.org/2000/svg"  viewBox="0 0 48 48" width="32px" height="32px"><path d="M20,29h4v12.235c0.979,0.16,1.976,0.265,3,0.265s2.021-0.105,3-0.265V29h3.625c0.504,0,0.93-0.376,0.992-0.876l0.375-3 c0.036-0.284-0.053-0.57-0.243-0.786C34.56,24.123,34.287,24,34,24h-4v-3.5c0-1.103,0.897-2,2-2h2c0.552,0,1-0.447,1-1v-3.375 c0-0.518-0.396-0.95-0.911-0.996C34.03,13.124,32.62,13,30.834,13C26.427,13,24,15.617,24,20.368V24h-4c-0.552,0-1,0.447-1,1v3 C19,28.553,19.448,29,20,29z"/><path fill="none" stroke="#000000" stroke-linejoin="round" stroke-miterlimit="10" stroke-width="3" d="M36.5,40.5h-25 c-2.209,0-4-1.791-4-4v-25c0-2.209,1.791-4,4-4h25c2.209,0,4,1.791,4,4v25C40.5,38.709,38.709,40.5,36.5,40.5z"/></svg>