<?xml version="1.0" encoding="UTF-8"?>
<svg xmlns="http://www.w3.org/2000/svg" xmlns:xlink="http://www.w3.org/1999/xlink" viewBox="0 0 32 32" width="32px" height="32px">
<g id="surface429907">
<path style="fill-rule:nonzero;fill:rgb(0%,0%,0%);fill-opacity:1;stroke-width:10;stroke-linecap:butt;stroke-linejoin:round;stroke:rgb(80.000001%,80.000001%,80.000001%);stroke-opacity:1;stroke-miterlimit:10;" d="M 157.658647 86.713246 C 157.658647 116.825479 139.025171 142.613675 112.523731 153.3569 C 109.64847 154.092432 107.508741 151.930414 107.508741 149.790684 L 107.508741 131.157208 C 107.508741 124.693442 104.633479 118.251965 100.331732 114.663461 C 116.825479 111.074956 128.99519 101.758218 128.99519 86.000003 C 128.99519 77.396508 125.406685 70.241787 120.391694 64.491265 C 121.127226 63.064779 121.840469 60.189517 121.840469 54.461283 C 121.840469 51.608311 121.840469 47.306563 120.391694 43.004816 C 120.391694 43.004816 109.64847 43.004816 100.331732 52.321554 C 96.029984 50.872779 91.014993 50.159536 86.000003 50.159536 C 80.985012 50.159536 75.970021 50.872779 72.381517 52.321554 C 62.351535 43.004816 52.321554 43.004816 52.321554 43.004816 C 50.159536 47.306563 50.159536 51.608311 50.159536 54.461283 C 50.159536 59.476274 50.872779 63.064779 51.608311 64.491265 C 46.59332 70.241787 43.004816 78.109751 43.004816 86.000003 C 43.004816 101.758218 55.174527 111.074956 71.668274 114.663461 C 67.366526 117.538722 65.226797 122.553713 64.491265 127.568703 C 63.064779 128.281946 60.925049 128.99519 58.049788 128.99519 C 55.910058 128.99519 51.608311 127.568703 48.019806 121.840469 C 46.59332 119.678451 43.004816 114.663461 38.703068 114.663461 C 37.989825 114.663461 35.827807 114.663461 35.827807 116.089947 C 35.827807 116.825479 36.54105 116.825479 38.703068 117.538722 C 40.842798 119.678451 42.291573 121.840469 43.004816 124.693442 C 43.718059 129.708433 48.019806 138.311928 58.049788 138.311928 C 61.638292 138.311928 64.491265 137.598685 64.491265 137.598685 L 64.491265 149.077441 C 64.491265 151.930414 62.351535 153.3569 60.189517 152.643657 C 30.812816 141.187189 11.466097 111.074956 15.054601 77.396508 C 18.643105 45.144545 45.144545 18.643105 78.109751 15.054601 C 121.127226 10.03961 157.658647 43.718059 157.658647 86.713246 Z M 157.658647 86.713246 " transform="matrix(0.175256,0,0,0.175256,0.928,0.928)"/>
<path style=" stroke:none;fill-rule:nonzero;fill:rgb(0%,0%,0%);fill-opacity:1;" d="M 14.617188 3.566406 C 8.839844 4.195312 4.195312 8.839844 3.566406 14.492188 C 2.9375 20.394531 6.328125 25.671875 11.476562 27.679688 C 11.855469 27.804688 12.230469 27.554688 12.230469 27.054688 L 12.230469 25.042969 C 12.230469 25.042969 11.730469 25.167969 11.101562 25.167969 C 9.34375 25.167969 8.589844 23.660156 8.464844 22.78125 C 8.339844 22.28125 8.085938 21.902344 7.710938 21.527344 C 7.332031 21.402344 7.207031 21.402344 7.207031 21.273438 C 7.207031 21.023438 7.585938 21.023438 7.710938 21.023438 C 8.464844 21.023438 9.09375 21.902344 9.34375 22.28125 C 9.972656 23.285156 10.726562 23.535156 11.101562 23.535156 C 11.605469 23.535156 11.980469 23.410156 12.230469 23.285156 C 12.359375 22.40625 12.734375 21.527344 13.488281 21.023438 C 10.597656 20.394531 8.464844 18.761719 8.464844 16 C 8.464844 14.617188 9.09375 13.238281 9.972656 12.230469 C 9.84375 11.980469 9.71875 11.351562 9.71875 10.472656 C 9.71875 9.972656 9.71875 9.21875 10.097656 8.464844 C 10.097656 8.464844 11.855469 8.464844 13.613281 10.097656 C 14.242188 9.84375 15.121094 9.71875 16 9.71875 C 16.878906 9.71875 17.757812 9.84375 18.511719 10.097656 C 20.144531 8.464844 22.027344 8.464844 22.027344 8.464844 C 22.28125 9.21875 22.28125 9.972656 22.28125 10.472656 C 22.28125 11.476562 22.15625 11.980469 22.027344 12.230469 C 22.90625 13.238281 23.535156 14.492188 23.535156 16 C 23.535156 18.761719 21.402344 20.394531 18.511719 21.023438 C 19.265625 21.652344 19.769531 22.78125 19.769531 23.914062 L 19.769531 27.179688 C 19.769531 27.554688 20.144531 27.933594 20.648438 27.804688 C 25.292969 25.921875 28.558594 21.402344 28.558594 16.125 C 28.558594 8.589844 22.15625 2.6875 14.617188 3.566406 Z M 14.617188 3.566406 "/>
</g>
</svg>
