<svg xmlns="http://www.w3.org/2000/svg" x="0px" y="0px"
width="48" height="48"
viewBox="0 0 64 64"
style=" fill:#000000;"><path d="M 32.033203 7 C 24.853203 7 19.033203 12.82 19.033203 20 L 19.033203 21.003906 L 45.033203 21.03125 L 45.033203 20 C 45.033203 12.82 39.213203 7 32.033203 7 z M 32.015625 11 C 33.680625 11 35.033203 12.352578 35.033203 14.017578 C 35.033203 15.682578 33.680625 17.033203 32.015625 17.033203 C 30.350625 17.033203 28.998047 15.682578 28.998047 14.017578 C 28.998047 12.352578 30.350625 11 32.015625 11 z M 13.03125 24 C 10.27025 24 8.0332031 26.237047 8.0332031 28.998047 L 8.0332031 31 L 16.033203 31 L 16.033203 24 L 13.03125 24 z M 48.033203 24 L 48.033203 31 L 56.033203 31 L 56.033203 28.998047 C 56.033203 26.237047 53.794203 24 51.033203 24 L 48.033203 24 z M 19.033203 24.003906 L 19.033203 34 L 16.033203 34 L 15.033203 34 L 8.0332031 34 L 8.0332031 48 L 16.033203 48 L 16.033203 37 L 19.033203 37 L 19.033203 48 L 20.599609 48 C 20.630609 48.119 20.668656 48.236562 20.722656 48.351562 L 23.314453 53.851562 C 23.645453 54.552563 24.349047 55 25.123047 55 L 38.941406 55 C 39.715406 55 40.420953 54.552562 40.751953 53.851562 L 43.34375 48.351562 C 43.39775 48.236562 43.436797 48.119 43.466797 48 L 45.033203 48 L 45.033203 37 L 48.033203 37 L 48.033203 48 L 56.033203 48 L 56.033203 34 L 49.033203 34 L 48.033203 34 L 45.033203 34 L 45.033203 24.03125 L 19.033203 24.003906 z M 25.033203 28 L 39.033203 28 C 40.137203 28 41.033203 28.896 41.033203 30 C 41.033203 31.104 40.138203 32 39.033203 32 L 25.033203 32 C 23.929203 32 23.033203 31.104 23.033203 30 C 23.033203 28.896 23.929203 28 25.033203 28 z M 30.033203 36 L 34.033203 36 C 35.138203 36 36.033203 36.895 36.033203 38 L 36.033203 42 C 36.033203 43.105 35.138203 44 34.033203 44 L 30.033203 44 C 28.929203 44 28.033203 43.105 28.033203 42 L 28.033203 38 C 28.033203 36.895 28.929203 36 30.033203 36 z M 24.980469 48 L 39.087891 48 L 37.673828 51 L 26.392578 51 L 24.980469 48 z M 8.0332031 51 C 8.0332031 51 6.8360781 53.776219 5.9550781 55.824219 C 5.7500781 56.298219 5.7980312 56.843391 6.0820312 57.275391 C 6.3660312 57.706391 6.8492344 57.966797 7.3652344 57.966797 L 16.033203 57.966797 L 16.033203 51 L 8.0332031 51 z M 48.033203 51 L 48.033203 58 L 56.759766 58 C 57.269766 58 57.74625 57.747219 58.03125 57.324219 C 58.31625 56.901219 58.373594 56.365578 58.183594 55.892578 C 57.352594 53.830578 56.212891 51 56.212891 51 L 48.033203 51 z" fill="rgb(255, 255, 255)"></path></svg>