<svg xmlns="http://www.w3.org/2000/svg" x="0px" y="0px"
width="200" height="156"
viewBox="0 0 64 64"
style=" fill:#000000;"><path d="M44.705,10c-1.454-0.86-3.378-1.771-6.17-3l5.125,5.648c3.734,4.215,5.353,7.726,5.353,12.352c0,5.5-3.041,9-7,9	c-5.273,0-7-3-7-5c0-6,9-10,9-10l-4.77-4.78c-0.548,0.35-4.228,3.625-5.23,4.78c0-2.364,0.584-4,0.584-4c0.388-1.25,2.416-3,2.416-3	l-5-5l-5,5c0,0,1.943,1.773,2.398,3c0.233,0.627,0.602,1.681,0.602,4c-1.274-1.648-4.682-4.43-5.23-4.78L20.013,19c0,0,9,4,9,10	c0,2-2.5,5-7,5c-3.958,0-7-2.77-7-9c0-4.626,1.62-8.137,5.353-12.352L25.491,7c-1.978,0.718-4.085,1.737-6.221,3	C12.207,14.177,7.525,22.154,7.013,30.328v1.87c0,13.676,11.215,24.802,25,24.802c13.785,0,25-11.126,25-24.802v-1.87	C56.501,22.154,51.768,14.177,44.705,10z" fill="rgb(255, 255, 255)"></path></svg>