<svg xmlns="http://www.w3.org/2000/svg" x="0px" y="0px"
width="48" height="48"
viewBox="0 0 64 64"
style=" fill:#FFFFFF;"><path d="M 56.044922 3.0078125 C 54.58126 3.0530718 53.276406 3.7449531 52.550781 4.3457031 C 52.513781 4.3757031 52.477359 4.4083594 52.443359 4.4433594 L 25.007812 32.052734 L 25.007812 32 L 16.007812 41 L 24.007812 47 L 25.007812 46 L 25.007812 45.962891 C 25.083813 45.910891 25.167375 45.8795 25.234375 45.8125 L 59.566406 11.5625 C 59.601406 11.5275 59.636969 11.489172 59.667969 11.451172 C 60.761969 10.115172 62.145828 6.929875 59.548828 4.421875 C 58.417016 3.329 57.183326 2.9726108 56.044922 3.0078125 z M 56.105469 6.0117188 C 56.544137 6.0057598 57.018969 6.14725 57.464844 6.578125 C 58.617844 7.690125 57.667813 9.1259531 57.382812 9.5019531 L 25.005859 41.802734 L 25.005859 36.308594 L 54.505859 6.6230469 C 54.742734 6.4430469 55.374355 6.0216504 56.105469 6.0117188 z M 10.009766 41.103516 L 6.5097656 44.605469 L 8.4042969 46.5 L 11.904297 42.998047 L 10.009766 41.103516 z M 14.007812 43 L 3.0078125 54 L 5.0878906 56.080078 C 4.6458906 56.522078 4.1015625 57.064453 3.6015625 57.564453 C 3.2245625 57.941453 3.0136719 58.451375 3.0136719 58.984375 C 3.0136719 59.517375 3.2255625 60.028297 3.6015625 60.404297 L 3.6035156 60.404297 C 4.3875156 61.188297 5.6574063 61.188297 6.4414062 60.404297 C 6.9414062 59.904297 7.4857344 59.362922 7.9277344 58.919922 L 10.007812 61 L 20.007812 51 L 14.007812 43 z"></path></svg>