<svg xmlns="http://www.w3.org/2000/svg" x="0px" y="0px"
width="48" height="48"
viewBox="0 0 64 64"
style=" fill:#000000;"><path d="M 25.363281 6 C 17.706281 6 11.046875 10.999297 11.046875 19.529297 L 11.046875 20 L 53.046875 20 L 53.046875 19.529297 C 53.046875 10.999297 46.385516 6 38.728516 6 L 25.363281 6 z M 11.046875 23 L 11.046875 26 C 10.395875 26.393 9.9667969 27.166 9.9667969 28 L 10.046875 34.029297 C 8.606875 35.029297 8.046875 36.903 8.046875 39 C 8.046875 40.752 9.403875 43.347 10.546875 44.5 L 13.046875 47 L 13.046875 53 C 15.630875 57.325 19.547719 57.998047 23.386719 57.998047 L 26.341797 57.998047 C 27.285797 57.998047 28.138297 57.616 28.779297 57 L 35.449219 57 C 36.090219 57.616 36.944672 58 37.888672 58 L 40.84375 58 C 44.68275 58 48.534563 57.295 51.101562 53 L 51.101562 47 L 54.126953 44 C 55.295953 42.819 56.046875 40.753 56.046875 39 C 56.046875 36.902 55.427875 35.126 54.046875 34 L 54.126953 28 C 54.126953 27.166 53.697875 26.420344 53.046875 26.027344 L 53.046875 23 L 11.046875 23 z M 28.066406 26 C 29.169406 26 29.516875 27.453 28.546875 28 L 19.546875 34.427734 C 19.036875 34.715734 18.397328 34.525 18.111328 34 L 15.046875 27.65625 C 14.646875 26.92125 15.157656 26.009766 15.972656 26.009766 L 28.066406 26 z M 36.046875 26 L 48.085938 26 C 48.899938 26 49.447875 27.265 49.046875 28 L 45.980469 34 C 45.694469 34.525 45.056875 34.714734 44.546875 34.427734 L 35.566406 28 C 34.597406 27.453 34.944875 26 36.046875 26 z M 32.080078 34.029297 C 33.669078 34.035297 35.243078 34.632938 36.580078 35.710938 L 47.40625 45 L 35.666016 38.765625 C 33.463016 37.684625 30.766453 37.684625 28.564453 38.765625 L 16.685547 45 L 27.650391 35.710938 C 28.987391 34.632937 30.560078 34.036297 32.080078 34.029297 z M 13.902344 36.714844 C 14.182094 36.714844 14.461781 36.825375 14.675781 37.046875 C 15.103781 37.488875 15.103781 38.203484 14.675781 38.646484 L 13.902344 39.447266 C 13.688344 39.668266 13.408906 39.779297 13.128906 39.779297 C 12.848906 39.779297 12.568469 39.668266 12.355469 39.447266 C 11.928469 39.006266 11.928469 38.290656 12.355469 37.847656 L 13.128906 37.046875 C 13.342906 36.825375 13.622594 36.714844 13.902344 36.714844 z M 50.326172 36.716797 C 50.606047 36.716797 50.887562 36.827328 51.101562 37.048828 L 51.873047 37.849609 C 52.300047 38.290609 52.300047 39.006219 51.873047 39.449219 C 51.660047 39.670219 51.381563 39.779297 51.101562 39.779297 C 50.821562 39.779297 50.539172 39.669219 50.326172 39.449219 L 49.554688 38.648438 C 49.126688 38.206437 49.126688 37.490828 49.554688 37.048828 C 49.768187 36.827328 50.046297 36.716797 50.326172 36.716797 z M 16.089844 38.980469 C 16.369594 38.980469 16.649281 39.089547 16.863281 39.310547 C 17.291281 39.753547 17.291281 40.468156 16.863281 40.910156 L 16.091797 41.710938 C 15.877797 41.930937 15.596406 42.042969 15.316406 42.042969 C 15.036406 42.042969 14.757922 41.930938 14.544922 41.710938 C 14.117922 41.269937 14.117922 40.553328 14.544922 40.111328 L 15.316406 39.310547 C 15.530406 39.089547 15.810094 38.980469 16.089844 38.980469 z M 48.138672 38.980469 C 48.418547 38.980469 48.698109 39.091 48.912109 39.3125 L 49.685547 40.111328 C 50.112547 40.552328 50.112547 41.269891 49.685547 41.712891 C 49.472547 41.933891 49.192109 42.042969 48.912109 42.042969 C 48.631109 42.042969 48.351672 41.932891 48.138672 41.712891 L 47.365234 40.912109 C 46.937234 40.470109 46.937234 39.7545 47.365234 39.3125 C 47.578734 39.091 47.858797 38.980469 48.138672 38.980469 z M 30.046875 44 L 34.046875 44 C 34.526875 44 35.005859 44.373 35.005859 45 C 35.005859 46.54 36.317641 48 37.806641 48 L 41.166016 48 C 43.086016 48 44.046875 49 44.046875 51 L 44.046875 53 C 44.046875 55 43.086016 56 41.166016 56 L 37.806641 56 C 36.495641 56 35.931828 55.070578 35.798828 54.267578 C 35.603828 52.901578 35.377609 51.316141 35.224609 50.244141 C 35.122609 49.530141 34.510063 49 33.789062 49 L 30.324219 49 C 29.594219 49 28.978672 49.544531 28.888672 50.269531 C 28.751672 51.362531 28.550906 52.972703 28.378906 54.345703 C 28.181906 55.344703 27.632156 56 26.285156 56 C 26.285156 56 23.99725 56.029297 22.90625 56.029297 C 21.00525 56.029297 20.046875 55.029297 20.046875 53.029297 L 20.046875 51 C 20.046875 49.029 21.00525 48.029297 22.90625 48.029297 L 26.341797 48 C 28.206797 48 29.085937 46.573 29.085938 45 C 29.085938 44.5 29.566875 44 30.046875 44 z M 24.046875 50 A 2 2 0 0 0 24.046875 54 A 2 2 0 0 0 24.046875 50 z M 40.046875 50 A 2 2 0 0 0 40.046875 54 A 2 2 0 0 0 40.046875 50 z" fill="rgb(255, 255, 255)"></path></svg>