<svg xmlns="http://www.w3.org/2000/svg" x="0px" y="0px"
width="48" height="48"
viewBox="0 0 64 64"
style=" fill:#000000;"><path d="M52.451 29.433c-.075-.253-.199-.488-.368-.694-.639-1.197-1.169-2.136-1.49-2.695.164-2.314.361-9.858-3.446-14.791-3.484-4.516-10.681-4.744-11.531-4.754-.523-.033-1.049-.051-1.573-.066V6.406c0-1.104-.896-2-2-2s-2 .896-2 2v.038c-.539.016-1.066.035-1.568.055-.311.011-7.64.317-11.435 4.659-3.197 3.659-3.486 12.079-3.497 14.687-.019.067-.036.135-.048.203-.319.555-.84 1.481-1.473 2.665-.185.219-.318.472-.395.745-2.636 5.02-6.679 13.632-6.581 19.077.157 8.596 20.638 10.18 26.91 10.461C31.986 59 32.016 59 32.046 59s.06 0 .09-.002c.145-.007 6.415-.295 12.738-1.514 9.46-1.824 14.096-4.75 14.172-8.948C59.145 43.082 55.087 34.448 52.451 29.433zM45.046 35h-9.773c-.777-.859-1.227-1.914-1.227-3 0-2.586 2.552-5 6-5 3.449 0 6 2.414 6 5C46.046 33.118 45.697 34.262 45.046 35zM34.043 10.43c.476.015.932.036 1.374.064.042.002.085.004.128.004.06 0 6.034.086 8.437 3.199 1.841 2.386 2.449 5.782 2.618 8.447-.793-.457-1.624-.817-2.499-1.081-.511-.169-1.15-.352-2.055-.562l2-1.5c.036-1.196.027-2.024-.805-2.994-2.307-2.692-6.652-3.342-9.198-3.484V10.43zM31.043 14c0-.552.447-1 1-1s1 .448 1 1v7.5c0 .552-.447 1-1 1s-1-.448-1-1V14zM30.046 32c0 1.086-.449 2.141-1.226 3h-9.774c-.777-.859-1-1.914-1-3 0-2.586 2.552-5 6-5C27.495 27 30.046 29.414 30.046 32zM20.052 13.79c2.197-2.514 6.93-3.23 8.574-3.294.5-.02.966-.036 1.417-.049v2.095c-2.527.138-6.74.785-8.997 3.458-.811.961-.925 2.089-1 3.14l1.997 1.36c-.701.14-1.303.317-1.86.511-.855.243-1.668.577-2.444 1C18.049 18.753 18.756 15.273 20.052 13.79zM40.202 49.218c-.018.041-.025.086-.04.128L34.046 40h-.003c0 .128-.015.251-.03.373-.017.142-.045.279-.081.412-.003.012-.006.025-.009.037-.034.122-.077.239-.125.352-.01.023-.019.046-.03.068-.046.101-.099.197-.155.288-.02.032-.04.062-.061.092-.054.079-.111.154-.172.223-.033.037-.068.072-.103.106-.056.056-.114.111-.175.16-.05.039-.102.072-.155.105-.054.035-.107.072-.165.101-.071.035-.145.06-.219.085-.046.016-.09.037-.137.048-.125.03-.253.049-.384.049-.131 0-.258-.018-.382-.048-.043-.01-.083-.029-.125-.043-.078-.026-.156-.052-.23-.089-.049-.025-.095-.056-.143-.085-.061-.038-.122-.076-.179-.122-.049-.039-.096-.082-.143-.127-.048-.045-.094-.093-.139-.143-.047-.054-.092-.11-.135-.169-.036-.049-.069-.101-.102-.154-.042-.068-.083-.138-.119-.212-.025-.05-.046-.103-.067-.155-.035-.083-.069-.167-.097-.255-.014-.046-.023-.095-.036-.142-.025-.099-.051-.199-.067-.303-.021-.146-.037-.295-.037-.449L24.046 49.5h2.997v-1.874l2-1.25V49.5h2v-4.375l1-.625 1 .608V49.5h2v-3.175l2 1.217V49.5h3.071c-.042.164-.072.331-.072.501L40.044 52H24.043v-2c0-.269-.054-.535-.159-.782l-1.018-2.394L31.046 35h1.997L41.2 46.87 40.202 49.218zM32.045 37.5L32.045 37.5 32.045 37.5z" fill="rgb(255, 255, 255)"></path></svg>